HIERARCHY
ROOT Hips
{
	OFFSET 0.000000 89.005402 0.000000
	CHANNELS 6 Xposition Yposition Zposition Xrotation Yrotation Zrotation
	JOINT Spine
	{
		OFFSET 0.116900 10.681000 0.373400
		CHANNELS 3 Xrotation Yrotation Zrotation
		JOINT Spine1
		{
			OFFSET 0.000000 13.840401 0.053500
			CHANNELS 3 Xrotation Yrotation Zrotation
			JOINT Spine2
			{
				OFFSET 0.000000 14.712700 -0.366200
				CHANNELS 3 Xrotation Yrotation Zrotation
				JOINT Neck
				{
					OFFSET 0.000000 35.415497 -3.314200
					CHANNELS 3 Xrotation Yrotation Zrotation
					JOINT Head
					{
						OFFSET 0.000000 16.899200 1.218300
						CHANNELS 3 Xrotation Yrotation Zrotation
						JOINT HeadTop_End
						{
							OFFSET 0.000000 22.206207 2.192500
							CHANNELS 3 Xrotation Yrotation Zrotation
							End Site
							{
								OFFSET 0.000000 22.314178 0.000000
							}
						}
					}
				}
				JOINT LeftShoulder
				{
					OFFSET 12.896400 26.716293 -4.548400
					CHANNELS 3 Xrotation Yrotation Zrotation
					JOINT LeftArm
					{
						OFFSET 19.027000 -4.857010 -1.718400
						CHANNELS 3 Xrotation Yrotation Zrotation
						JOINT LeftForeArm
						{
							OFFSET 24.179897 0.000000 0.000000
							CHANNELS 3 Xrotation Yrotation Zrotation
							JOINT LeftHand
							{
								OFFSET 27.156403 0.000000 0.000000
								CHANNELS 3 Xrotation Yrotation Zrotation
								JOINT LeftHandIndex1
								{
									OFFSET 16.441200 0.000000 0.000000
									CHANNELS 3 Xrotation Yrotation Zrotation
									JOINT LeftHandIndex2
									{
										OFFSET 4.821899 0.000000 0.000000
										CHANNELS 3 Xrotation Yrotation Zrotation
										JOINT LeftHandIndex3
										{
											OFFSET 6.386497 0.000000 0.000000
											CHANNELS 3 Xrotation Yrotation Zrotation
											JOINT LeftHandIndex4
											{
												OFFSET 5.188988 0.000000 0.000000
												CHANNELS 3 Xrotation Yrotation Zrotation
												End Site
												{
													OFFSET -0.178703 5.185913 0.000177
												}
											}
										}
									}
								}
								JOINT LeftHandThumb1
								{
									OFFSET 6.534897 -5.032593 5.900300
									CHANNELS 3 Xrotation Yrotation Zrotation
									JOINT LeftHandThumb2
									{
										OFFSET 3.818176 -2.204422 2.204423
										CHANNELS 3 Xrotation Yrotation Zrotation
										JOINT LeftHandThumb3
										{
											OFFSET 3.252098 -1.877594 1.877601
											CHANNELS 3 Xrotation Yrotation Zrotation
											JOINT LeftHandThumb4
											{
												OFFSET 5.251778 -3.032120 3.032117
												CHANNELS 3 Xrotation Yrotation Zrotation
												End Site
												{
													OFFSET 0.000023 6.780014 0.000000
												}
											}
										}
									}
								}
							}
						}
					}
				}
				JOINT RightShoulder
				{
					OFFSET -12.896300 26.716293 -4.548400
					CHANNELS 3 Xrotation Yrotation Zrotation
					JOINT RightArm
					{
						OFFSET -19.027000 -4.857010 -1.718400
						CHANNELS 3 Xrotation Yrotation Zrotation
						JOINT RightForeArm
						{
							OFFSET -24.179897 0.000000 0.000000
							CHANNELS 3 Xrotation Yrotation Zrotation
							JOINT RightHand
							{
								OFFSET -27.156403 0.000000 0.000000
								CHANNELS 3 Xrotation Yrotation Zrotation
								JOINT RightHandThumb1
								{
									OFFSET -6.591202 -4.852203 5.988100
									CHANNELS 3 Xrotation Yrotation Zrotation
									JOINT RightHandThumb2
									{
										OFFSET -3.818176 -2.204422 2.204423
										CHANNELS 3 Xrotation Yrotation Zrotation
										JOINT RightHandThumb3
										{
											OFFSET -3.252098 -1.877594 1.877601
											CHANNELS 3 Xrotation Yrotation Zrotation
											JOINT RightHandThumb4
											{
												OFFSET -5.251778 -3.032120 3.032117
												CHANNELS 3 Xrotation Yrotation Zrotation
												End Site
												{
													OFFSET -0.000023 6.780014 0.000000
												}
											}
										}
									}
								}
								JOINT RightHandIndex1
								{
									OFFSET -16.029404 0.000000 0.000000
									CHANNELS 3 Xrotation Yrotation Zrotation
									JOINT RightHandIndex2
									{
										OFFSET -5.213303 0.000000 0.000000
										CHANNELS 3 Xrotation Yrotation Zrotation
										JOINT RightHandIndex3
										{
											OFFSET -6.386528 0.000000 0.000000
											CHANNELS 3 Xrotation Yrotation Zrotation
											JOINT RightHandIndex4
											{
												OFFSET -5.189026 0.000000 0.000000
												CHANNELS 3 Xrotation Yrotation Zrotation
												End Site
												{
													OFFSET 0.236702 5.183624 0.001972
												}
											}
										}
									}
								}
							}
						}
					}
				}
			}
		}
	}
	JOINT LeftUpLeg
	{
		OFFSET 14.073000 -7.904099 -1.463000
		CHANNELS 3 Xrotation Yrotation Zrotation
		JOINT LeftLeg
		{
			OFFSET -0.109806 -34.073280 4.093200
			CHANNELS 3 Xrotation Yrotation Zrotation
			JOINT LeftFoot
			{
				OFFSET 0.109806 -29.899420 -6.319000
				CHANNELS 3 Xrotation Yrotation Zrotation
				JOINT LeftToeBase
				{
					OFFSET 1.551100 -14.988700 20.535801
					CHANNELS 3 Xrotation Yrotation Zrotation
					JOINT LeftToe_End
					{
						OFFSET 0.221200 0.570800 13.248301
						CHANNELS 3 Xrotation Yrotation Zrotation
						End Site
						{
							OFFSET 0.000000 13.262435 0.000000
						}
					}
				}
			}
		}
	}
	JOINT RightUpLeg
	{
		OFFSET -13.839300 -7.904099 -1.463000
		CHANNELS 3 Xrotation Yrotation Zrotation
		JOINT RightLeg
		{
			OFFSET 0.109694 -34.073219 4.093300
			CHANNELS 3 Xrotation Yrotation Zrotation
			JOINT RightFoot
			{
				OFFSET -0.109694 -29.899384 -6.319200
				CHANNELS 3 Xrotation Yrotation Zrotation
				JOINT RightToeBase
				{
					OFFSET -1.551100 -14.988700 20.535801
					CHANNELS 3 Xrotation Yrotation Zrotation
					JOINT RightToe_End
					{
						OFFSET -0.221200 0.570900 13.248299
						CHANNELS 3 Xrotation Yrotation Zrotation
						End Site
						{
							OFFSET 0.000000 13.262440 0.000000
						}
					}
				}
			}
		}
	}
}
MOTION
Frames: 4
Frame Time: 0.033333
0.115355 88.425987 1.539782 -0.013318 -0.902460 -0.722507 -0.121680 0.576545 -0.732490 -0.245958 1.065438 -0.321534 -0.252271 1.429099 1.771788 8.427594 0.578653 3.798097 -5.292114 4.060938 -5.492191 -0.000000 -0.000000 0.000000 -5.285930 -10.493819 -13.598779 17.067908 -28.233120 -66.816592 0.000003 -9.291045 0.000009 -11.492965 6.076524 -2.146712 0.722040 5.242873 -19.056455 0.227579 1.618589 -16.006207 0.038537 0.671644 -6.568817 0.000002 -0.000002 -0.000002 -2.869002 3.737989 9.040682 12.471520 25.898102 0.629978 -17.726600 -15.285796 3.803377 -0.000002 -0.000000 0.000000 -2.479332 -0.181179 13.871419 21.245322 38.438139 60.557434 0.000000 10.825339 -0.000019 -14.442204 0.541934 0.114701 -6.843523 -4.635842 -19.349921 11.513005 -15.494733 5.712741 -16.634967 13.071246 -16.107341 -0.000000 0.000001 -0.000000 1.030091 -6.398581 15.661888 0.131283 -1.099126 13.622151 0.025325 -0.485513 5.970859 -0.000002 -0.000001 -0.000001 -5.020542 10.961971 2.038181 7.306620 -0.100547 -0.173744 -2.483275 6.124784 -0.189269 -0.007277 -0.000003 0.000000 0.000000 0.000002 0.000000 -4.427557 0.629038 1.435872 4.419015 -0.122567 0.051986 0.048262 2.844491 -0.713515 -0.005829 -0.000000 -0.000000 -0.000000 0.000000 0.000000 
0.119573 88.384087 1.495076 -0.146368 -0.855705 -0.684348 -0.050028 0.570303 -0.734383 -0.220629 1.065438 -0.302701 -0.227093 1.429100 1.784919 9.616317 0.583268 3.620509 -5.264099 4.023616 -5.355020 0.000000 -0.000000 -0.000000 -5.159917 -10.384233 -13.556024 16.757534 -28.246200 -66.698430 -0.000007 -9.271612 0.000004 -11.551944 5.931032 -1.804228 0.739038 5.295975 -18.981214 0.226851 1.616038 -15.980372 0.038467 0.670961 -6.562033 -0.000001 0.000001 -0.000000 -2.796196 3.840613 9.081701 12.460210 25.895472 0.609561 -17.703744 -15.220950 3.827050 -0.000002 -0.000000 -0.000001 -2.444040 -0.122431 13.789561 20.894918 38.357564 60.581346 0.000001 10.922107 0.000005 -14.246559 0.712337 0.306560 -6.856225 -4.664200 -19.317047 11.513848 -15.496774 5.712670 -16.612692 13.034716 -16.118195 -0.000001 0.000000 0.000001 1.026233 -6.365114 15.769177 0.130292 -1.095036 13.570372 0.025036 -0.482849 5.937956 0.000002 -0.000002 0.000002 -5.039151 10.957552 2.021572 7.572157 -0.143135 -0.197308 -2.596222 6.115177 -0.156025 -0.007276 0.000002 0.000000 0.000000 0.000000 -0.000000 -4.568696 0.672783 1.425430 4.962389 -0.176682 -0.024390 -0.224495 2.840920 -0.658836 -0.005829 -0.000001 -0.000000 -0.000000 0.000000 -0.000000 
0.112724 88.269485 1.408573 -0.353450 -0.737001 -0.571331 0.190440 0.561065 -0.804106 -0.121375 1.065438 -0.309440 -0.127649 1.429100 1.774252 10.827122 0.605447 3.479804 -5.241562 3.961242 -5.187458 0.000000 -0.000000 -0.000000 -4.821230 -10.080750 -13.396968 15.933723 -28.207583 -66.344086 0.000001 -9.217083 0.000013 -11.851941 5.560536 -1.068825 0.759334 5.328125 -19.432932 0.226860 1.616075 -15.980677 0.039238 0.677648 -6.627767 0.000002 0.000001 -0.000002 -2.759094 3.920716 9.048882 12.439458 25.902746 0.538773 -17.652052 -15.118188 3.865646 -0.000003 0.000000 0.000000 -2.333653 0.098125 13.626287 19.835790 38.113924 60.674490 0.000008 11.096715 -0.000002 -13.705552 1.126198 0.798766 -6.839957 -4.845736 -19.160229 11.629281 -15.737726 5.694549 -16.508210 12.858051 -16.170447 0.000000 -0.000001 -0.000005 1.023754 -6.353231 15.786654 0.131282 -1.099138 13.622194 0.025931 -0.491358 6.043059 0.000003 -0.000001 -0.000000 -5.211568 10.903688 1.956814 8.255189 -0.163362 -0.207987 -2.886207 6.079133 -0.129706 -0.018992 0.000000 -0.000000 0.000000 0.000000 -0.000000 -5.019461 0.700237 1.390986 6.300712 -0.318434 -0.210973 -0.912047 2.817727 -0.537083 -0.005830 0.000000 0.000000 0.000000 0.000000 -0.000000 
0.093959 88.078354 1.299972 -0.575406 -0.681433 -0.461871 0.507278 0.543283 -0.858248 -0.001378 1.065438 -0.308641 -0.007591 1.423863 1.763349 12.041971 0.636661 3.319930 -5.230272 3.895991 -5.060648 0.000000 0.000000 -0.000000 -4.313301 -9.389944 -13.168836 14.767101 -28.179983 -65.790561 -0.000007 -9.089792 0.000008 -12.046732 5.015704 -0.423993 0.770121 5.336434 -19.830520 0.226112 1.613487 -15.954316 0.040186 0.685733 -6.707332 -0.000003 -0.000001 0.000003 -2.709189 3.996821 9.038653 12.399817 25.901853 0.428239 -17.564685 -14.980917 3.934164 -0.000002 0.000000 -0.000001 -2.175246 0.357031 13.311975 18.092994 37.731925 60.924652 -0.000001 11.178214 0.000008 -12.904422 1.568619 1.305889 -6.832584 -5.088183 -19.044835 11.683915 -15.893758 5.658716 -16.383665 12.647484 -16.219106 0.000000 -0.000002 0.000000 1.002431 -6.266773 15.855490 0.132911 -1.105806 13.706508 0.027425 -0.505239 6.214530 -0.000002 -0.000003 -0.000002 -5.641337 10.833322 1.958344 9.497298 -0.108506 -0.196734 -3.464862 6.014892 -0.131027 -0.053630 -0.000001 -0.000000 0.000000 -0.000001 0.000000 -5.713869 0.848561 1.451267 8.109126 -0.489270 -0.547470 -1.817397 2.779596 -0.332183 -0.005829 0.000000 0.000000 0.000000 0.000000 0.000000 
